<?xml version="1.0" encoding="UTF-8" standalone="no"?>
<!-- Created with Inkscape (http://www.inkscape.org/) -->

<svg
   width="208.0547mm"
   height="208.0547mm"
   viewBox="0 0 208.0547 208.0547"
   version="1.1"
   id="svg1"
   xml:space="preserve"
   sodipodi:docname="GraviCap Sticker.svg"
   inkscape:version="1.3.2 (091e20e, 2023-11-25, custom)"
   xmlns:inkscape="http://www.inkscape.org/namespaces/inkscape"
   xmlns:sodipodi="http://sodipodi.sourceforge.net/DTD/sodipodi-0.dtd"
   xmlns="http://www.w3.org/2000/svg"
   xmlns:svg="http://www.w3.org/2000/svg"><sodipodi:namedview
     id="namedview1"
     pagecolor="#ffffff"
     bordercolor="#000000"
     borderopacity="0.25"
     inkscape:showpageshadow="2"
     inkscape:pageopacity="0.0"
     inkscape:pagecheckerboard="0"
     inkscape:deskcolor="#d1d1d1"
     inkscape:document-units="mm"
     inkscape:zoom="0.35355339"
     inkscape:cx="192.33304"
     inkscape:cy="287.08535"
     inkscape:window-width="1366"
     inkscape:window-height="697"
     inkscape:window-x="-8"
     inkscape:window-y="-8"
     inkscape:window-maximized="1"
     inkscape:current-layer="svg1"
     showguides="true"><sodipodi:guide
       position="91.632518,41.130682"
       orientation="1,0"
       id="guide1"
       inkscape:locked="false" /><sodipodi:guide
       position="114.43229,166.31771"
       orientation="1,0"
       id="guide2"
       inkscape:locked="false" /></sodipodi:namedview><defs
     id="defs1"><linearGradient
       id="linearGradient15-1"><stop
         style="stop-color:#9f1aef;stop-opacity:1;"
         offset="0"
         id="stop15" /><stop
         style="stop-color:#9f1aef;stop-opacity:0;"
         offset="1"
         id="stop16" /></linearGradient></defs><g
     id="layer3"
     style="display:inline"
     transform="translate(-105.36579,-41.737715)"
     inkscape:label="Fondo"
     inkscape:highlight-color="#a944ee"><rect
       style="display:inline;fill:#ffffff;fill-opacity:1;stroke:none;stroke-width:0;stroke-linecap:round;stroke-dasharray:none;stroke-opacity:1"
       id="rect12"
       width="418.49167"
       height="297"
       x="0"
       y="-0.52916664"
       inkscape:label="Fondo" /></g><g
     id="layer1"
     style="display:inline"
     transform="matrix(1.7075949,0,0,1.7075949,-50.864388,-183.12265)"
     inkscape:label="Símbolo"
     inkscape:highlight-color="#810ec8"
     inkscape:export-filename="GraviCap Sticker.png"
     inkscape:export-xdpi="100000"
     inkscape:export-ydpi="100000"><path
       id="path8"
       style="display:inline;opacity:1;fill:#ffffff;stroke:#810ec8;stroke-width:5.50395;stroke-linejoin:round;stroke-miterlimit:1000"
       inkscape:label="Círculo Exterior"
       transform="matrix(0.585619,0,0,0.585619,29.181321,81.921198)"
       d="M 206.33725,147.26176 A 101.27538,101.27537 0 0 1 105.06187,248.53713 101.27538,101.27537 0 0 1 3.7864838,147.26176 101.27538,101.27537 0 0 1 105.06187,45.986397 101.27538,101.27537 0 0 1 206.33725,147.26176 Z" /><g
       id="text10"
       style="font-size:16.2854px;letter-spacing:1.5622px;word-spacing:3.7082px;display:inline;fill:#8114c2;stroke:#820ec8;stroke-width:0.701008;stroke-linecap:round"
       transform="matrix(0.8689226,0,0,0.97351018,7.5143742,1.4696849)"
       aria-label="GRAVICAP"
       inkscape:label="Nombre Abajo"
       inkscape:highlight-color="#510981"><g
         id="g43"
         inkscape:label="P"><path
           style="font-family:Carlito;-inkscape-font-specification:'Carlito, Normal';font-variant-ligatures:discretionary-ligatures no-contextual;text-align:center;text-anchor:middle"
           d="m 133.99502,213.65212 2.04831,3.32803 c -0.51022,0.31488 -1.02383,0.6248 -1.54073,0.92963 l -5.31877,-9.03332 c 0.94888,-0.55769 1.88713,-1.13441 2.81382,-1.72898 0.5901,-0.3786 1.13824,-0.64888 1.65245,-0.80886 0.51874,-0.16316 0.99762,-0.22848 1.43975,-0.19314 0.44189,0.0353 0.84807,0.16744 1.21814,0.39907 0.37175,0.22379 0.7027,0.53486 0.98985,0.93553 0.28416,0.39649 0.4671,0.81309 0.54537,1.25212 0.0833,0.43527 0.0582,0.88219 -0.0783,1.3399 -0.1344,0.4497 -0.38362,0.89957 -0.74957,1.34558 -0.36359,0.43792 -0.85046,0.85743 -1.45969,1.25049 -0.51659,0.33329 -1.03685,0.66132 -1.56067,0.98395 z"
           id="path28"
           inkscape:label="P" /><path
           style="font-size:16.2854px;font-family:Carlito;-inkscape-font-specification:'Carlito, Normal';font-variant-ligatures:discretionary-ligatures no-contextual;text-align:center;letter-spacing:1.5622px;word-spacing:3.7082px;text-anchor:middle;display:inline;fill:#ffffff;fill-opacity:1;stroke:none;stroke-width:0.701008;stroke-linecap:round"
           d="m 133.39308,212.6741 c 0.51709,-0.3183 1.03075,-0.64192 1.54082,-0.9707 0.36619,-0.23605 0.65991,-0.49242 0.88061,-0.76624 0.22075,-0.27389 0.3693,-0.55306 0.44629,-0.83589 0.0821,-0.28634 0.0931,-0.5703 0.0341,-0.8515 -0.054,-0.28472 -0.17196,-0.55778 -0.35252,-0.82011 -0.37906,-0.55071 -0.84945,-0.85537 -1.40483,-0.92199 -0.55975,-0.0712 -1.19511,0.1308 -1.92237,0.5979 -0.48579,0.312 -0.97478,0.61915 -1.46683,0.92128 z"
           id="path29"
           inkscape:label="P-Ex" /></g><g
         id="g42"
         inkscape:label="A2"><path
           style="font-family:Carlito;-inkscape-font-specification:'Carlito, Normal';font-variant-ligatures:discretionary-ligatures no-contextual;text-align:center;text-anchor:middle"
           d="m 131.48071,219.61314 c -0.40996,0.22059 -0.82178,0.43797 -1.2354,0.65209 -0.14081,0.0729 -0.27008,0.1034 -0.3873,0.0917 -0.11136,-0.0147 -0.21227,-0.0528 -0.30269,-0.1142 -0.71014,-0.58146 -1.41195,-1.16967 -2.10519,-1.76448 -1.55409,0.76687 -3.13193,1.4859 -4.73071,2.15363 -0.004,0.90822 -0.02,1.81822 -0.0468,2.72979 -0.003,0.0984 -0.0436,0.20052 -0.12243,0.30615 -0.0726,0.10316 -0.17991,0.18278 -0.32162,0.2384 -0.43434,0.1705 -0.87017,0.33735 -1.30745,0.50047 0.3043,-3.83292 0.39477,-7.64466 0.28724,-11.41808 0.49058,-0.21852 0.97922,-0.4424 1.46582,-0.67148 2.77722,2.55254 5.71939,4.98847 8.80652,7.29596 z"
           id="path26"
           inkscape:label="A2" /><path
           style="font-size:16.2854px;font-family:Carlito;-inkscape-font-specification:'Carlito, Normal';font-variant-ligatures:discretionary-ligatures no-contextual;text-align:center;letter-spacing:1.5622px;word-spacing:3.7082px;text-anchor:middle;display:inline;fill:#ffffff;fill-opacity:1;stroke:none;stroke-width:0.701008;stroke-linecap:round"
           d="m 122.72098,219.50766 c 1.3075,-0.55494 2.60089,-1.14465 3.87857,-1.76713 -1.14441,-1.00685 -2.26469,-2.03183 -3.35969,-3.07425 -0.10784,-0.0907 -0.22435,-0.20081 -0.34942,-0.33048 -0.12504,-0.1297 -0.25258,-0.2729 -0.38262,-0.42965 0.03,0.20834 0.053,0.40229 0.069,0.58183 0.016,0.17951 0.0255,0.33857 0.0288,0.47703 0.0687,1.50834 0.10748,3.02288 0.11542,4.54265 z"
           id="path27"
           inkscape:label="A2-Ex" /></g><path
         style="font-family:Carlito;-inkscape-font-specification:'Carlito, Normal';font-variant-ligatures:discretionary-ligatures no-contextual;text-align:center;text-anchor:middle"
         d="m 117.03124,223.4602 c 0.0857,-0.028 0.17523,-0.024 0.26876,0.012 0.28559,0.12323 0.57263,0.24495 0.86108,0.36515 -0.27599,0.61993 -0.69943,1.16813 -1.27076,1.63721 -0.57116,0.46894 -1.32335,0.8414 -2.24982,1.10193 -0.81795,0.23001 -1.59805,0.30042 -2.32782,0.21561 -0.72366,-0.0865 -1.37421,-0.30625 -1.94725,-0.6536 -0.56819,-0.35413 -1.04236,-0.82511 -1.42568,-1.40846 -0.37839,-0.59014 -0.64143,-1.27159 -0.79981,-2.04267 -0.15825,-0.77042 -0.17609,-1.50055 -0.0647,-2.18765 0.11032,-0.69258 0.33168,-1.31646 0.65935,-1.87355 0.32789,-0.55745 0.75444,-1.03397 1.28124,-1.43556 0.52711,-0.40182 1.13835,-0.70022 1.84316,-0.90317 0.69941,-0.2014 1.34383,-0.27532 1.94412,-0.21639 0.60536,0.0571 1.17197,0.20879 1.70267,0.45874 -0.0949,0.26758 -0.19164,0.535 -0.29009,0.80226 -0.0187,0.0565 -0.0483,0.10821 -0.0891,0.15512 -0.0407,0.0469 -0.10053,0.0834 -0.17937,0.10921 -0.0958,0.0314 -0.21765,0.0209 -0.36496,-0.0318 -0.1418,-0.0545 -0.3219,-0.1051 -0.5405,-0.15283 -0.22018,-0.0528 -0.48105,-0.0823 -0.78316,-0.09 -0.30223,-0.008 -0.65648,0.0485 -1.0661,0.16617 -0.48239,0.13853 -0.90141,0.34946 -1.26157,0.6364 -0.35435,0.28532 -0.6379,0.63553 -0.8518,1.05325 -0.20931,0.41096 -0.34189,0.88306 -0.39578,1.41679 -0.0492,0.52696 -0.005,1.10292 0.1395,1.72546 0.14537,0.62826 0.36548,1.16801 0.66682,1.61866 0.30119,0.45043 0.65567,0.80595 1.06473,1.06476 0.40887,0.25869 0.85856,0.42078 1.34664,0.48408 0.49426,0.0616 0.99868,0.0207 1.50783,-0.12353 0.31421,-0.089 0.58836,-0.18801 0.82186,-0.29563 0.23981,-0.1095 0.45173,-0.23143 0.63551,-0.36504 0.18846,-0.14061 0.35495,-0.29488 0.49935,-0.46237 0.14902,-0.1745 0.28744,-0.36865 0.41492,-0.58229 0.0754,-0.10223 0.15881,-0.16832 0.25068,-0.19835 z"
         id="path7"
         inkscape:label="C" /><path
         style="font-size:16.2854px;font-family:Carlito;-inkscape-font-specification:'Carlito, Normal';font-variant-ligatures:discretionary-ligatures no-contextual;text-align:center;letter-spacing:1.5622px;word-spacing:3.7082px;text-anchor:middle;display:inline;fill:#8114c2;stroke:#820ec8;stroke-width:0.701008;stroke-linecap:round"
         d="m 104.96007,228.52252 c -0.59931,0.0866 -1.20005,0.16587 -1.80211,0.23758 l -1.2243,-10.33229 c 0.51314,-0.0604 1.02577,-0.12774 1.5378,-0.20178 z"
         id="path36"
         inkscape:label="I" /><path
         style="font-size:16.2854px;font-family:Carlito;-inkscape-font-specification:'Carlito, Normal';font-variant-ligatures:discretionary-ligatures no-contextual;text-align:center;letter-spacing:1.5622px;word-spacing:3.7082px;text-anchor:middle;display:inline;fill:#8114c2;stroke:#820ec8;stroke-width:0.701008;stroke-linecap:round"
         d="m 89.06585,218.4795 c 0.412671,0.0463 0.825768,0.0878 1.239195,0.12445 0.134986,0.012 0.241909,0.0529 0.321187,0.12313 0.07927,0.0703 0.134987,0.15438 0.167017,0.25253 0.725532,2.50315 1.575702,4.99384 2.553281,7.46401 0.07264,0.16648 0.142255,0.34867 0.208899,0.54655 0.07328,0.19273 0.137289,0.39575 0.191814,0.60904 0.05719,-0.2107 0.120206,-0.4108 0.188911,-0.60024 0.07531,-0.19462 0.152912,-0.37346 0.232857,-0.53649 0.127521,-0.28514 0.253316,-0.57073 0.377378,-0.85674 0.928177,-2.14431 1.761288,-4.30328 2.502642,-6.4734 0.03113,-0.0909 0.09093,-0.1721 0.179122,-0.24386 0.08821,-0.0718 0.19717,-0.11002 0.327362,-0.11517 0.416083,-0.0165 0.832034,-0.0377 1.247795,-0.0635 -1.170124,3.55096 -2.5922,7.07286 -4.282036,10.54858 -0.0028,-1e-5 -0.0056,-2e-5 -0.0085,-3e-5 -0.550861,-0.006 -1.101267,-0.0194 -1.651089,-0.0396 -1.539033,-3.5398 -2.801362,-7.12839 -3.795872,-10.73921 z"
         id="path35"
         inkscape:label="V" /><g
         id="g41"
         inkscape:label="A1"><path
           style="font-size:16.2854px;font-family:Carlito;-inkscape-font-specification:'Carlito, Normal';font-variant-ligatures:discretionary-ligatures no-contextual;text-align:center;letter-spacing:1.5622px;word-spacing:3.7082px;text-anchor:middle;display:inline;fill:#8114c2;stroke:#820ec8;stroke-width:0.701008;stroke-linecap:round"
           d="m 86.691772,228.69882 c -0.469744,-0.0619 -0.938684,-0.12889 -1.406735,-0.20082 -0.159342,-0.0245 -0.283849,-0.0763 -0.373159,-0.15487 -0.0827,-0.0775 -0.142715,-0.16768 -0.180133,-0.27032 -0.23468,-0.88552 -0.45471,-1.77185 -0.660202,-2.65866 -1.713712,-0.30946 -3.414128,-0.68895 -5.096446,-1.13604 -0.558877,0.71423 -1.130301,1.42218 -1.71408,2.12355 -0.06306,0.0757 -0.158716,0.13114 -0.287109,0.16593 -0.121942,0.0366 -0.257191,0.0334 -0.40515,-0.01 -0.4535,-0.13291 -0.905579,-0.27052 -1.356152,-0.4128 2.62486,-2.81979 5.026904,-5.77105 7.190021,-8.83088 0.509991,0.12144 1.02148,0.23576 1.534274,0.34286 0.65393,3.68888 1.569268,7.37837 2.754871,11.04203 z"
           id="path32"
           inkscape:label="A1" /><path
           style="font-size:16.2854px;font-family:Carlito;-inkscape-font-specification:'Carlito, Normal';font-variant-ligatures:discretionary-ligatures no-contextual;text-align:center;letter-spacing:1.5622px;word-spacing:3.7082px;text-anchor:middle;display:inline;fill:#ffffff;fill-opacity:1;stroke:none;stroke-width:0.701008;stroke-linecap:round"
           d="m 79.66237,223.39106 c 1.376946,0.35602 2.765744,0.66598 4.163644,0.92849 -0.319391,-1.48428 -0.598507,-2.96947 -0.837872,-4.45406 -0.03072,-0.13667 -0.05656,-0.29403 -0.07734,-0.47204 -0.02078,-0.17803 -0.03533,-0.3683 -0.04364,-0.57083 -0.100428,0.18365 -0.197969,0.35159 -0.292482,0.50384 -0.0945,0.15224 -0.181988,0.28434 -0.26214,0.39626 -0.847316,1.23924 -1.731009,2.46245 -2.65017,3.66834 z"
           id="path33"
           inkscape:label="A1-Ex" /></g><g
         id="g40"
         inkscape:label="R"><path
           style="font-size:16.2854px;font-family:Carlito;-inkscape-font-specification:'Carlito, Normal';font-variant-ligatures:discretionary-ligatures no-contextual;text-align:center;letter-spacing:1.5622px;word-spacing:3.7082px;text-anchor:middle;display:inline;fill:#8114c2;stroke:#820ec8;stroke-width:0.701008;stroke-linecap:round"
           d="m 67.886489,218.57596 -1.889682,3.90808 c -0.549013,-0.26526 -1.09453,-0.53779 -1.63637,-0.81751 l 4.794672,-9.28278 c 0.910056,0.47036 1.832277,0.91703 2.765258,1.33928 0.622298,0.28164 1.13462,0.57626 1.540371,0.89483 0.412663,0.31556 0.723313,0.64786 0.930883,1.00253 0.214869,0.35183 0.333962,0.72307 0.354357,1.11595 0.02225,0.3877 -0.04234,0.79074 -0.197942,1.2075 -0.127868,0.34249 -0.306092,0.64063 -0.537452,0.89321 -0.225624,0.25464 -0.495626,0.45825 -0.811125,0.60894 -0.309667,0.15287 -0.660871,0.2515 -1.053011,0.29358 -0.390083,0.0372 -0.809471,0.0139 -1.255618,-0.0717 0.07513,0.0952 0.141783,0.19514 0.199959,0.29989 0.06021,0.0999 0.111758,0.21315 0.154758,0.33989 0.500683,1.69799 1.077707,3.3962 1.732281,5.08895 -0.511657,-0.18116 -1.02114,-0.36837 -1.528322,-0.56158 -0.294389,-0.11215 -0.4869,-0.29263 -0.576483,-0.53845 -0.511245,-1.53324 -0.961425,-3.06813 -1.351404,-4.60071 -0.03885,-0.14507 -0.09986,-0.26254 -0.183288,-0.35266 -0.07558,-0.0924 -0.213121,-0.18392 -0.412718,-0.2761 -0.347803,-0.16062 -0.694196,-0.32433 -1.039124,-0.4911 z"
           id="path30" /><path
           style="font-size:16.2854px;font-family:Carlito;-inkscape-font-specification:'Carlito, Normal';font-variant-ligatures:discretionary-ligatures no-contextual;text-align:center;letter-spacing:1.5622px;word-spacing:3.7082px;text-anchor:middle;display:inline;fill:#ffffff;fill-opacity:1;stroke:none;stroke-width:0.701008;stroke-linecap:round"
           d="m 68.346798,217.62399 c 0.475585,0.22997 0.953997,0.45403 1.435086,0.6721 0.405086,0.18363 0.781168,0.29667 1.124431,0.34092 0.351153,0.0418 0.666587,0.0221 0.944843,-0.0573 0.278364,-0.0794 0.514678,-0.21478 0.709449,-0.40443 0.20244,-0.19234 0.35912,-0.42907 0.472033,-0.70921 0.468459,-1.16227 -0.08607,-2.03097 -1.580546,-2.70717 -0.470248,-0.21277 -0.937807,-0.43163 -1.402506,-0.65648 z"
           id="path31" /></g><path
         style="font-size:16.2854px;font-family:Carlito;-inkscape-font-specification:'Carlito, Normal';font-variant-ligatures:discretionary-ligatures no-contextual;text-align:center;letter-spacing:1.5622px;word-spacing:3.7082px;text-anchor:middle;display:inline;fill:#8114c2;stroke:#820ec8;stroke-width:0.701008;stroke-linecap:round"
         d="m 60.92862,218.59397 c -0.737441,-0.005 -1.466829,-0.12638 -2.180381,-0.36501 -0.707707,-0.23493 -1.417837,-0.59519 -2.118921,-1.08135 -0.844665,-0.58574 -1.521797,-1.24131 -2.026272,-1.9479 -0.499359,-0.70286 -0.82363,-1.42125 -0.976695,-2.14334 -0.149779,-0.72638 -0.126373,-1.43791 0.06171,-2.13117 0.191635,-0.69786 0.549251,-1.34339 1.061194,-1.94523 0.514974,-0.60541 1.09019,-1.06683 1.714928,-1.393 0.633098,-0.32658 1.286557,-0.51462 1.959173,-0.57094 0.681015,-0.0568 1.368961,0.0204 2.071734,0.22719 0.703346,0.20694 1.393067,0.55192 2.086741,1.0357 0.353851,0.24678 0.664158,0.49614 0.931608,0.75114 0.275036,0.25371 0.513099,0.51357 0.714426,0.78154 0.204151,0.26349 0.375241,0.53427 0.513186,0.81362 0.142822,0.28235 0.261661,0.56949 0.356217,0.86206 -0.239165,0.10941 -0.479424,0.21751 -0.720764,0.32431 -0.115527,0.0534 -0.230536,0.0604 -0.344575,0.0208 -0.114044,-0.0396 -0.208983,-0.12707 -0.283877,-0.26201 -0.07771,-0.13035 -0.160274,-0.28008 -0.246924,-0.44882 -0.07891,-0.17016 -0.188169,-0.35093 -0.327232,-0.54318 -0.1362,-0.19675 -0.312118,-0.40491 -0.527258,-0.62629 -0.215234,-0.22145 -0.49144,-0.44814 -0.828927,-0.68403 -0.494158,-0.34539 -0.992591,-0.58849 -1.504039,-0.7299 -0.50663,-0.13791 -1.006468,-0.17589 -1.503944,-0.11193 -0.49251,0.0675 -0.973151,0.23853 -1.440969,0.51638 -0.464289,0.27357 -0.89549,0.65186 -1.287297,1.13915 -0.408757,0.50836 -0.695761,1.02872 -0.854983,1.56651 -0.150836,0.53727 -0.179176,1.07227 -0.08087,1.60417 0.106638,0.53135 0.335437,1.04873 0.687852,1.54617 0.355421,0.49298 0.830062,0.94953 1.421267,1.36013 0.455522,0.31637 0.894896,0.55194 1.312843,0.70803 0.421035,0.15173 0.859045,0.26201 1.312076,0.33006 l 1.228409,-1.93293 c -0.504212,-0.32044 -1.004027,-0.64782 -1.49924,-0.98206 -0.09433,-0.0637 -0.155305,-0.13714 -0.182875,-0.22004 -0.02758,-0.0829 -0.01876,-0.1572 0.02611,-0.22286 l 0.462168,-0.67622 c 1.01088,0.6909 2.041664,1.35268 3.09051,1.98442 l -2.076098,3.44684 c -5e-6,0 -1e-5,1e-5 -1.5e-5,2e-5 z"
         id="path2"
         inkscape:label="G" /></g><g
       id="g57"
       transform="translate(0,2.7890102)"
       inkscape:label="Logo"><g
         id="g9"
         style="display:inline"
         inkscape:label="Círculos"><g
           id="g34"
           inkscape:label="Círculos Grandes"><path
             style="display:inline;fill:none;stroke:#810ec8;stroke-width:6.52028;stroke-dasharray:none;stroke-opacity:1"
             d="m 96.801565,132.1344 c 0.879601,0 3.141613,0.54998 4.552355,1.02879 13.45454,4.56643 23.02108,17.21726 23.02108,32.24884 v 4e-5 c 0,13.89787 -9.4711,26.23603 -21.375,31.58792"
             id="path1"
             inkscape:label="Círculo Derecha"
             sodipodi:nodetypes="ccssc" /><path
             style="display:inline;fill:none;stroke:#ae42f0;stroke-width:6.52028;stroke-linecap:butt;stroke-miterlimit:4;stroke-dasharray:none;stroke-opacity:1"
             d="m 83.447628,198.91249 c -13.817104,-0.002 -26.456388,-15.50523 -26.479973,-33.9214 -0.018,-14.05582 8.910667,-26.15191 21.032347,-31.41207"
             id="path34"
             inkscape:label="Círculo Izquierda"
             sodipodi:nodetypes="csc" /></g><g
           id="g10"
           style="display:inline"
           inkscape:label="Círculos Chicos"><path
             id="circle8"
             style="display:inline;fill:none;stroke:#af42f0;stroke-width:3.265;stroke-dasharray:none;stroke-opacity:1"
             d="m 87.211627,132.1344 a 4.8355284,4.8355284 0 0 1 -4.835528,4.83553 4.8355284,4.8355284 0 0 1 -4.835529,-4.83553 4.8355284,4.8355284 0 0 1 4.835529,-4.83553 4.8355284,4.8355284 0 0 1 4.835528,4.83553 z"
             inkscape:label="Círculo Arriba" /><path
             id="path6"
             style="display:inline;fill:none;stroke:#820dc9;stroke-width:3.265;stroke-dasharray:none;stroke-opacity:1"
             d="m 102.82204,198.67708 c 0,2.67059 -2.16494,4.83553 -4.835529,4.83553 -2.670589,0 -4.835529,-2.16494 -4.835528,-4.83553 -10e-7,-2.67059 2.164939,-4.83553 4.835528,-4.83553 2.670589,0 4.835529,2.16494 4.835529,4.83553 z"
             inkscape:label="Círculo Abajo" /></g></g><g
         id="g8"
         style="display:inline"
         inkscape:label="Rayo"><path
           style="display:inline;fill:#510981;fill-opacity:1;stroke:#520b7f;stroke-width:0.987;stroke-dasharray:none;stroke-opacity:1"
           d="m 85.938677,150.90621 0.01905,-0.12381 9.543844,5.10279 -1.011193,23.42971 -9.576292,-4.09163 z"
           id="path5"
           inkscape:label="Centro" /><path
           style="display:inline;fill:#810ec8;fill-opacity:1;stroke:#810ec8;stroke-width:1;stroke-dasharray:none;stroke-opacity:1"
           d="m 100.42927,136.40916 8.86776,30.71084 -13.801616,11.80156 1.803434,-43.48287 z"
           id="path4"
           inkscape:label="Rayo Derecha"
           sodipodi:nodetypes="ccccc" /><path
           style="display:inline;fill:#a944ee;fill-opacity:1;stroke:#ad42f0;stroke-width:1;stroke-dasharray:none;stroke-opacity:1"
           d="m 79.333251,194.72134 -8.326403,-31.72306 14.033074,-11.8677 -2.079607,44.32481 z"
           id="path3"
           inkscape:label="Rayo Izquierda"
           sodipodi:nodetypes="ccccc" /></g></g><g
       id="g70"
       transform="matrix(-0.01898123,0.67093194,-0.67093194,-0.01898123,251.37665,-26.033029)"
       inkscape:label="Instagram Izquierda"
       inkscape:highlight-color="#a944ee"><path
         style="fill:#000000;stroke-width:0.0455644"
         d="m 277.20549,270.18177 c -0.59839,-0.29446 -0.84864,-0.45159 -1.0928,-0.67158 -0.23501,-0.21176 -0.40048,-0.43585 -0.51797,-0.69972 -0.14343,-0.32195 -0.19078,-0.64442 -0.14775,-0.99316 0.0504,-0.40831 0.17416,-0.71081 0.84817,-2.08096 0.42964,-0.87339 0.64834,-1.29184 0.79364,-1.5213 0.34057,-0.53645 0.76814,-0.84563 1.3212,-0.96348 0.30911,-0.0659 0.66795,-0.0471 1.0276,0.0527 0.33526,0.0933 0.66457,0.24278 1.81977,0.75744 1.15286,0.51362 1.48047,0.65526 1.77098,0.83978 0.3115,0.19785 0.56221,0.44882 0.71809,0.72027 0.19596,0.3413 0.28105,0.69687 0.25891,1.09269 -0.023,0.41086 -0.11959,0.72025 -0.67748,2.15091 -0.35739,0.9165 -0.53723,1.34552 -0.66513,1.58877 -0.27324,0.5179 -0.64313,0.8458 -1.14505,1.00595 -0.27809,0.0888 -0.55938,0.1143 -0.87816,0.0791 -0.41767,-0.0461 -0.83817,-0.17225 -2.39627,-0.87551 -0.47149,-0.21271 -0.90042,-0.4153 -1.03795,-0.48188 7e-5,-3e-5 1.4e-4,-5e-5 2e-4,-7e-5 z m 2.56553,0.43528 c 0.48579,0.1905 0.67925,0.2449 0.92284,0.26978 0.22151,0.0228 0.40973,0.002 0.59906,-0.0655 0.20998,-0.0749 0.35104,-0.17026 0.50247,-0.33878 0.2227,-0.24777 0.32224,-0.45825 0.8893,-1.87162 0.56728,-1.41395 0.64027,-1.63376 0.65755,-1.96484 0.0118,-0.22525 -0.0178,-0.38873 -0.10529,-0.58541 -0.0788,-0.17717 -0.18676,-0.31936 -0.34509,-0.45482 -0.2814,-0.24088 -0.44695,-0.30097 -1.90062,-0.94913 -1.45572,-0.64907 -1.61745,-0.73277 -1.98645,-0.78098 -0.20838,-0.0274 -0.38786,-0.0125 -0.57332,0.0474 -0.20586,0.0665 -0.3476,0.15398 -0.50679,0.31342 -0.234,0.23431 -0.34715,0.43579 -1.00988,1.80246 -0.66252,1.36623 -0.75098,1.58071 -0.78595,1.91088 -0.0237,0.2246 -7.3e-4,0.39231 0.0825,0.59739 0.0751,0.18497 0.1838,0.33786 0.34629,0.48622 0.17616,0.16078 0.35154,0.27309 0.77745,0.48943 0.2227,0.11288 2.20143,1.00355 2.43597,1.094 z m -0.89383,-1.61001 c -0.36583,-0.19983 -0.65584,-0.48934 -0.84495,-0.8414 -0.044,-0.0817 -0.12253,-0.27534 -0.14745,-0.363 -0.0982,-0.34522 -0.094,-0.69739 0.01,-1.03589 0.0355,-0.11555 0.13283,-0.32164 0.19933,-0.42252 0.1932,-0.29282 0.45871,-0.52002 0.77704,-0.66812 0.0907,-0.0423 0.28449,-0.10798 0.38305,-0.13006 0.3457,-0.0774 0.70439,-0.0628 1.05367,0.0425 0.1196,0.0362 0.33768,0.13353 0.44429,0.19836 0.31137,0.18955 0.56091,0.44651 0.73347,0.75529 0.0468,0.0837 0.12834,0.27372 0.15585,0.36312 0.10439,0.33926 0.11358,0.69113 0.0242,1.03419 -0.0306,0.11715 -0.11888,0.3277 -0.18114,0.43152 -0.18281,0.30453 -0.44188,0.54264 -0.76586,0.70008 -0.0824,0.04 -0.27923,0.11033 -0.36981,0.13207 -0.35392,0.0849 -0.73501,0.072 -1.08902,-0.0371 -0.11015,-0.0339 -0.29198,-0.10958 -0.38289,-0.15808 z m 0.63693,-0.44456 c 0.52384,0.12549 1.03841,-0.0593 1.33119,-0.47192 0.0401,-0.0567 0.0564,-0.0875 0.10494,-0.2006 0.0486,-0.11314 0.0583,-0.14653 0.0734,-0.21415 0.0987,-0.49727 -0.11241,-0.99234 -0.54555,-1.29347 -0.0598,-0.0415 -0.0914,-0.0581 -0.2094,-0.11082 -0.11808,-0.0528 -0.15197,-0.0637 -0.22232,-0.0821 -0.51378,-0.12183 -1.02369,0.0509 -1.32783,0.45586 -0.0417,0.0556 -0.0585,0.0858 -0.11028,0.1974 -0.069,0.14873 -0.0906,0.22602 -0.10514,0.3703 -0.0428,0.43584 0.17552,0.88574 0.56115,1.14698 0.0983,0.0666 0.10291,0.0693 0.24163,0.12888 0.0947,0.0402 0.14689,0.059 0.20826,0.0738 0,0 -4e-5,-1.7e-4 -4e-5,-1.7e-4 z m 2.61975,-1.81741 c -0.0632,-0.0502 -0.10405,-0.10412 -0.13687,-0.18087 -0.0491,-0.11458 -0.0501,-0.21931 -0.004,-0.3286 0.0315,-0.0741 0.0589,-0.10949 0.11836,-0.16217 0.0397,-0.0342 0.0661,-0.0495 0.12371,-0.0718 0.12221,-0.0473 0.23941,-0.0423 0.35889,0.0153 0.21762,0.1048 0.31472,0.34639 0.22551,0.56349 -0.0613,0.14902 -0.21326,0.254 -0.37846,0.26001 -0.0375,10e-4 -0.0859,-0.001 -0.10755,-0.005 -0.0589,-0.0114 -0.15856,-0.0554 -0.20029,-0.0893 1.1e-4,-1.9e-4 2.1e-4,-3.9e-4 3.2e-4,-5.8e-4 z"
         id="path69" /><path
         style="font-size:1.85934px;display:inline;opacity:1;stroke-width:2.09176;stroke-linejoin:round;stroke-miterlimit:1000"
         d="m 289.75554,270.5948 c -0.0512,0.19652 -0.12613,0.38238 -0.22553,0.5573 -0.0949,0.17601 -0.21324,0.32756 -0.35564,0.45425 -0.14121,0.12242 -0.29889,0.21037 -0.47284,0.2634 -0.17278,0.0489 -0.36172,0.0446 -0.56531,-0.0136 -0.21279,-0.0608 -0.36528,-0.16553 -0.45668,-0.3125 -0.0854,-0.14992 -0.11945,-0.3012 -0.10334,-0.45349 -0.011,-0.003 -0.0221,-0.007 -0.0331,-0.01 -0.1296,0.13187 -0.29097,0.22626 -0.48428,0.28228 -0.19325,0.056 -0.41219,0.0455 -0.65486,-0.0325 -0.35278,-0.11351 -0.58653,-0.31102 -0.69961,-0.58779 -0.11315,-0.27711 -0.10708,-0.59157 0.0144,-0.94389 0.0939,-0.2725 0.23558,-0.49574 0.42283,-0.67058 0.1873,-0.17487 0.40378,-0.28851 0.64957,-0.34222 0.24997,-0.0522 0.5155,-0.0327 0.79923,0.0573 0.19196,0.0609 0.37443,0.13629 0.54797,0.2263 0.1792,0.087 0.31589,0.16448 0.41035,0.23385 -0.1485,0.42427 -0.29758,0.84838 -0.44725,1.27234 -0.0273,0.0751 -0.046,0.12941 -0.056,0.1632 -0.009,0.0296 -0.015,0.0508 -0.0188,0.0636 -0.0664,0.2248 -0.0693,0.38525 -0.008,0.48169 0.0669,0.0934 0.15801,0.15663 0.27284,0.18939 0.14225,0.0406 0.27692,0.0209 0.40298,-0.0589 0.13169,-0.0826 0.24697,-0.20677 0.34612,-0.37221 0.10358,-0.16418 0.18496,-0.35718 0.24519,-0.57894 0.10649,-0.39211 0.11222,-0.7503 0.0221,-1.07338 -0.0858,-0.3221 -0.25035,-0.59623 -0.49336,-0.82464 -0.23889,-0.22727 -0.53475,-0.39578 -0.89107,-0.50866 -0.4895,-0.15507 -0.93458,-0.19448 -1.34171,-0.11372 -0.4027,0.0822 -0.75532,0.26302 -1.05752,0.54616 -0.29622,0.28032 -0.52676,0.64069 -0.68659,1.08308 -0.22325,0.61793 -0.22064,1.15455 0.0197,1.61046 0.23969,0.45466 0.70367,0.79971 1.38816,1.01778 0.28389,0.0905 0.56408,0.14479 0.83903,0.16322 0.27832,0.024 0.52819,0.0304 0.74884,0.0205 l -0.12566,0.43321 c -0.2248,0.0182 -0.47192,0.0127 -0.74054,-0.0176 -0.26494,-0.0245 -0.55073,-0.0848 -0.85566,-0.1818 -0.55342,-0.17607 -0.9938,-0.42742 -1.3176,-0.74581 -0.32406,-0.31865 -0.52454,-0.68795 -0.60371,-1.10398 -0.0731,-0.41892 -0.0174,-0.8692 0.1615,-1.35233 0.14339,-0.38719 0.3402,-0.72156 0.58713,-1.00434 0.24851,-0.287 0.53476,-0.50844 0.85744,-0.66622 0.32427,-0.16201 0.67477,-0.25229 1.05277,-0.27312 0.38388,-0.0237 0.78411,0.0324 1.20564,0.16622 0.44268,0.14049 0.80887,0.35003 1.10424,0.63358 0.2951,0.28329 0.49786,0.62115 0.60769,1.0169 0.11415,0.39637 0.11319,0.83245 -0.0105,1.30655 -1.9e-4,-1.4e-4 -3.7e-4,-2.8e-4 -5.6e-4,-4.1e-4 z m -3.5201,-0.60761 c -0.0914,0.27333 -0.10139,0.48948 -0.0286,0.64898 0.074,0.15518 0.21146,0.26557 0.41158,0.32969 0.25485,0.0816 0.46533,0.0495 0.62926,-0.0943 0.1687,-0.14257 0.30456,-0.3531 0.40919,-0.63126 0.0944,-0.26038 0.18865,-0.52082 0.28266,-0.78132 -0.0526,-0.0335 -0.12078,-0.0707 -0.20473,-0.11172 -0.0839,-0.041 -0.17191,-0.0761 -0.26417,-0.10536 -0.21545,-0.0683 -0.40498,-0.074 -0.5701,-0.0163 -0.16509,0.0577 -0.30304,0.15664 -0.4136,0.29739 -0.10935,0.13641 -0.1932,0.29064 -0.25082,0.46299 0,0 -6.5e-4,0.001 -6.5e-4,0.001 z m 6.03333,-0.0867 c 0.2338,0.0485 0.43483,0.13322 0.60476,0.2555 0.17405,0.12303 0.31235,0.28496 0.41542,0.48684 0.0109,0.002 0.0218,0.004 0.0326,0.006 0.0542,-0.1493 0.10815,-0.29868 0.16176,-0.44815 0.15529,0.0272 0.31068,0.0534 0.46618,0.0787 l -0.57877,3.55675 c -0.0815,0.50056 -0.28656,0.85332 -0.62423,1.05491 -0.33142,0.20172 -0.80903,0.24709 -1.42038,0.12302 -0.58595,-0.11893 -1.04702,-0.29995 -1.37927,-0.53148 l 0.12328,-0.52177 c 0.33992,0.26998 0.80436,0.46939 1.38954,0.58778 0.33944,0.0687 0.62363,0.0303 0.84803,-0.11194 0.22899,-0.13731 0.36861,-0.35877 0.4227,-0.66255 l 0.0243,-0.13653 c 0.009,-0.0521 0.0249,-0.12534 0.047,-0.21992 0.0228,-0.099 0.0403,-0.16751 0.0525,-0.20556 -0.009,-0.002 -0.018,-0.003 -0.027,-0.005 -0.32034,0.30532 -0.75556,0.40771 -1.29417,0.29689 -0.49993,-0.10287 -0.85523,-0.34861 -1.06035,-0.72675 -0.20091,-0.37803 -0.22795,-0.84753 -0.0914,-1.40964 0.1333,-0.54869 0.37137,-0.95214 0.70416,-1.21342 0.33905,-0.26516 0.73098,-0.34711 1.1852,-0.25281 -6.4e-4,-3e-4 -10e-4,-5.9e-4 -0.002,-8.8e-4 z m -0.0188,0.4959 c -0.29904,-0.0614 -0.55546,0.004 -0.77345,0.19969 -0.21657,0.19076 -0.37593,0.49868 -0.47311,0.92432 -0.0973,0.42602 -0.0889,0.7714 0.0296,1.0375 0.11922,0.26126 0.34893,0.42895 0.68687,0.49785 0.38536,0.0786 0.68542,0.0379 0.8952,-0.11611 0.21121,-0.15872 0.35194,-0.44891 0.42687,-0.87014 l 0.0243,-0.13689 c 0.0841,-0.47264 0.0571,-0.82957 -0.0758,-1.06873 -0.13336,-0.23982 -0.37939,-0.39346 -0.74086,-0.46769 10e-5,6e-5 1.9e-4,1.3e-4 2.9e-4,2e-4 z m 4.51632,0.16179 c 0.067,0.005 0.13814,0.0159 0.21347,0.0311 0.0757,0.0104 0.14435,0.0236 0.20614,0.0399 -0.0375,0.17695 -0.0754,0.35382 -0.11361,0.53061 -0.0581,-0.0185 -0.12313,-0.0341 -0.19513,-0.0469 -0.0718,-0.0152 -0.13711,-0.0253 -0.19616,-0.0302 -0.18588,-0.0156 -0.36479,0.0189 -0.53876,0.10379 -0.17328,0.0804 -0.32044,0.2044 -0.44162,0.373 -0.11584,0.16471 -0.18852,0.36514 -0.21583,0.60169 l -0.21712,1.88043 c -0.21552,-0.0253 -0.43067,-0.0523 -0.64543,-0.0809 l 0.4635,-3.5153 c 0.16046,0.021 0.32103,0.0409 0.4817,0.0597 -0.003,0.21729 -0.006,0.43461 -0.008,0.65198 0.009,9.9e-4 0.0171,0.002 0.0256,0.003 0.13598,-0.17977 0.30343,-0.32984 0.50193,-0.4517 0.20307,-0.12139 0.42803,-0.17113 0.67822,-0.15066 4.1e-4,1.8e-4 8.1e-4,3.6e-4 10e-4,5.4e-4 z m 2.3085,0.11655 c 0.4342,0.004 0.75579,0.0911 0.97198,0.27561 0.21515,0.18336 0.3351,0.48164 0.35158,0.89624 l 0.096,2.41577 c -0.16012,0.007 -0.32034,0.0118 -0.48063,0.016 -0.0467,-0.16671 -0.0926,-0.33353 -0.13793,-0.50047 -0.009,2e-4 -0.0186,3.9e-4 -0.0278,5.8e-4 -0.16886,0.19785 -0.35186,0.34377 -0.54688,0.43721 -0.19474,0.0934 -0.4624,0.13928 -0.79949,0.13179 -0.3675,-0.008 -0.66951,-0.10534 -0.90001,-0.28575 -0.0258,-0.0207 -0.05,-0.0426 -0.0726,-0.0656 0,0 0,0 0,0 -0.17649,-0.18321 -0.25231,-0.43631 -0.2317,-0.75782 0.0175,-0.27365 0.1229,-0.49221 0.31182,-0.65757 0,0 0,0 0,0 0.0551,-0.0482 0.1173,-0.0919 0.18653,-0.1314 0.3087,-0.18023 0.76362,-0.26607 1.37639,-0.28185 0.21268,-0.006 0.42514,-0.0153 0.63736,-0.0265 l -0.004,-0.21201 c -0.006,-0.29575 -0.0764,-0.50011 -0.20897,-0.6132 -0.13295,-0.11334 -0.31766,-0.16935 -0.55659,-0.17146 -0.18937,-0.002 -0.36997,0.0236 -0.54336,0.0762 -0.17341,0.0482 -0.33659,0.10394 -0.48984,0.16789 -0.0549,-0.14872 -0.10887,-0.29764 -0.16184,-0.44675 0.16119,-0.0756 0.3491,-0.13776 0.56428,-0.18833 0.21547,-0.0549 0.43727,-0.081 0.66764,-0.0792 -6.1e-4,2.4e-4 -10e-4,4.7e-4 -0.002,7.1e-4 z m 0.73336,1.87161 c -0.18679,0.0107 -0.3738,0.0196 -0.56099,0.0267 -0.4744,0.0166 -0.80424,0.0764 -0.99566,0.19555 -0.18562,0.11763 -0.28543,0.28804 -0.29524,0.51349 -0.009,0.19903 0.051,0.34793 0.18077,0.4454 0.1348,0.0976 0.30967,0.14927 0.52266,0.15308 0.3321,0.006 0.61051,-0.0762 0.83009,-0.24153 0.22447,-0.16999 0.33058,-0.42894 0.32409,-0.77334 -0.002,-0.10645 -0.004,-0.2129 -0.006,-0.31935 z m 2.81091,1.5583 c -0.63052,-1.12171 -1.20679,-2.26145 -1.72669,-3.41622 0.20842,-0.0122 0.41672,-0.0267 0.62486,-0.0436 0.30904,0.67461 0.63651,1.34412 0.98204,2.00797 0.0485,0.0924 0.10074,0.19533 0.15713,0.30893 0.0563,0.11358 0.108,0.2231 0.1549,0.32878 0.0466,0.10578 0.0815,0.19249 0.10456,0.26084 0.009,-10e-4 0.0184,-0.002 0.0276,-0.003 0.007,-0.072 0.0233,-0.16476 0.0475,-0.27899 0.0248,-0.11852 0.0516,-0.23747 0.0802,-0.35686 0.0281,-0.12369 0.0547,-0.23598 0.08,-0.33723 0.17958,-0.72649 0.34038,-1.45415 0.48263,-2.18233 0.20652,-0.0325 0.41272,-0.0672 0.61858,-0.10416 -0.23803,1.24443 -0.53211,2.4878 -0.88352,3.72665 -0.24949,0.0327 -0.49942,0.0626 -0.74973,0.0895 z m 2.2132,-5.28502 c 0.0832,-0.0176 0.16236,-0.003 0.23807,0.0435 0.0788,0.0415 0.13239,0.12452 0.16015,0.24946 0.0278,0.12494 0.0147,0.22514 -0.04,0.30062 -0.0515,0.0701 -0.12022,0.11429 -0.20569,0.1323 -0.0939,0.0198 -0.17887,0.008 -0.25418,-0.0355 -0.0763,-0.0476 -0.12642,-0.13448 -0.15129,-0.26024 -0.0248,-0.12549 -0.0112,-0.22274 0.0402,-0.29167 0.0506,-0.0732 0.12132,-0.11921 0.21278,-0.13849 z m 0.5542,1.24197 0.76344,3.46618 c -0.2144,0.0471 -0.42928,0.0921 -0.64461,0.13495 l -0.69399,-3.48022 c 0.19208,-0.0384 0.38381,-0.0787 0.57516,-0.12091 z m 1.81687,2.8475 c -0.0408,-0.15821 -0.0265,-0.28047 0.0418,-0.36673 0.0683,-0.0864 0.16078,-0.14519 0.278,-0.17705 0.11747,-0.0319 0.22938,-0.0287 0.33666,0.01 0.10712,0.0385 0.18377,0.13602 0.22892,0.29312 0.0439,0.15277 0.0305,0.27611 -0.0414,0.37002 -0.0718,0.0938 -0.16846,0.15745 -0.28918,0.19023 -0.12073,0.0328 -0.23386,0.0261 -0.33843,-0.0197 -0.10489,-0.0456 -0.17667,-0.14569 -0.21638,-0.2998 z m 3.64839,-0.71111 c -0.33661,0.12724 -0.65787,0.17412 -0.95803,0.14254 -0.30025,-0.0316 -0.56744,-0.15282 -0.79945,-0.36086 -0.22765,-0.20988 -0.40204,-0.51556 -0.52942,-0.91588 -0.13251,-0.41644 -0.16878,-0.77894 -0.11475,-1.08417 0.0586,-0.30726 0.18749,-0.56207 0.38641,-0.76707 0.19924,-0.20522 0.447,-0.36279 0.74692,-0.47703 0.1667,-0.0635 0.33569,-0.10831 0.50799,-0.13457 0.17495,-0.0319 0.32193,-0.0447 0.44189,-0.0371 0.006,0.17234 0.0112,0.34487 0.0154,0.51759 -0.1163,0.005 -0.24832,0.0176 -0.39663,0.0381 -0.14818,0.0205 -0.28126,0.053 -0.3999,0.0981 -0.66217,0.25176 -0.8665,0.78618 -0.57642,1.63811 0.13828,0.40612 0.32976,0.68832 0.58115,0.84448 0.2536,0.14991 0.5594,0.16133 0.90976,0.0289 0.19789,-0.0748 0.36748,-0.16221 0.50818,-0.26081 0.14055,-0.0986 0.26317,-0.20104 0.36785,-0.30654 l 0.19782,0.47815 c -0.10035,0.10839 -0.22141,0.20772 -0.36297,0.29728 -0.13517,0.0919 -0.31051,0.17952 -0.52545,0.26077 -1.1e-4,4e-5 -2.2e-4,8e-5 -3.3e-4,1.2e-4 z m 1.56338,-4.70072 c 0.39111,-0.19598 0.71986,-0.26424 0.99725,-0.1974 0.27606,0.0663 0.51798,0.2792 0.71954,0.64305 l 1.17431,2.11991 c -0.13972,0.0773 -0.27997,0.15372 -0.42074,0.2291 -0.11683,-0.12823 -0.23314,-0.25681 -0.34894,-0.38576 -0.008,0.004 -0.0163,0.009 -0.0245,0.013 -0.0609,0.25265 -0.15755,0.46508 -0.28834,0.63603 -0.13059,0.17083 -0.34713,0.33179 -0.64898,0.47681 -0.32902,0.15808 -0.64008,0.20783 -0.92615,0.15183 -0.28808,-0.0599 -0.50293,-0.25883 -0.64804,-0.59131 -0.14159,-0.32443 -0.11075,-0.63385 0.0816,-0.92943 0.19157,-0.30109 0.55733,-0.58572 1.09722,-0.878 0.18695,-0.10235 0.37284,-0.20653 0.55762,-0.31252 l -0.0995,-0.18773 c -0.13877,-0.26191 -0.2945,-0.41252 -0.46451,-0.45329 -0.17045,-0.0408 -0.36143,-0.007 -0.57634,0.10075 -0.17033,0.0851 -0.32046,0.19036 -0.45144,0.31679 -0.13304,0.12246 -0.25327,0.24707 -0.36069,0.3744 -0.11698,-0.10695 -0.23325,-0.21441 -0.34881,-0.32238 0.10926,-0.14162 0.2488,-0.28366 0.4183,-0.4278 0.16782,-0.14809 0.35469,-0.27344 0.56215,-0.3774 -3.6e-4,4.4e-4 -7.1e-4,8.9e-4 -10e-4,0.001 z m 1.50437,1.33824 c -0.16206,0.0939 -0.32497,0.18637 -0.48872,0.27749 -0.41555,0.22965 -0.68184,0.43317 -0.7975,0.62616 -0.11127,0.18914 -0.12183,0.38607 -0.0275,0.591 0.0833,0.18092 0.2041,0.28627 0.36353,0.31431 0.1639,0.0259 0.34234,-0.007 0.53296,-0.0997 0.29726,-0.14443 0.50732,-0.34281 0.62784,-0.5893 0.12276,-0.2528 0.10039,-0.53205 -0.0611,-0.83704 -0.0498,-0.0943 -0.0996,-0.18864 -0.14948,-0.28295 z m 2.03049,-3.4217 c 0.36506,-0.24847 0.74039,-0.33043 1.14052,-0.24462 0.40197,0.0827 0.79416,0.36501 1.16411,0.85592 0.36536,0.48482 0.52612,0.93966 0.46889,1.37258 -0.053,0.42835 -0.2881,0.79137 -0.70224,1.07305 -0.25649,0.17444 -0.50026,0.27367 -0.72704,0.29913 -0.22268,0.0228 -0.41991,0.003 -0.59108,-0.0561 -0.0126,0.008 -0.0251,0.0158 -0.0377,0.0237 0.0443,0.0609 0.10167,0.13745 0.17188,0.22906 0.0747,0.0889 0.13455,0.16892 0.17943,0.24032 l 0.77756,1.23692 c -0.19461,0.12227 -0.39037,0.24266 -0.58726,0.36115 l -2.65841,-4.41442 c 0.138,-0.0831 0.27535,-0.16734 0.41203,-0.25262 0.1083,0.12289 0.21694,0.24553 0.32593,0.36791 0.007,-0.005 0.0145,-0.009 0.0217,-0.0137 0.01,-0.18927 0.0599,-0.37562 0.14904,-0.55993 0.0891,-0.18431 0.25366,-0.35576 0.4936,-0.51908 -3.3e-4,2.5e-4 -6.6e-4,5e-4 -9.9e-4,7.6e-4 z m 0.18624,0.46753 c -0.30801,0.20805 -0.47355,0.43503 -0.49518,0.69084 -0.0215,0.25477 0.0743,0.56132 0.2915,0.91596 l 0.0601,0.0956 c 0.23343,0.37143 0.47773,0.61718 0.73857,0.73494 0.26158,0.11082 0.57754,0.0484 0.93741,-0.19488 0.1963,-0.1327 0.32599,-0.29276 0.38834,-0.47699 0.0599,-0.18817 0.0581,-0.38816 -0.004,-0.59958 -0.0586,-0.21427 -0.16656,-0.42829 -0.32221,-0.64366 -0.2384,-0.32989 -0.49804,-0.54437 -0.77315,-0.64698 -0.27226,-0.10548 -0.5434,-0.063 -0.82123,0.12472 4e-5,3e-5 9e-5,5e-5 1.4e-4,8e-5 z"
         id="path70"
         aria-label="@gravi.cap" /></g><g
       id="g72"
       transform="matrix(0.01898123,-0.67093194,0.67093194,0.01898123,-70.10449,362.45173)"
       inkscape:label="Instagram Derecha"><path
         style="fill:#000000;stroke-width:0.0455644"
         d="m 277.20549,270.18177 c -0.59839,-0.29446 -0.84864,-0.45159 -1.0928,-0.67158 -0.23501,-0.21176 -0.40048,-0.43585 -0.51797,-0.69972 -0.14343,-0.32195 -0.19078,-0.64442 -0.14775,-0.99316 0.0504,-0.40831 0.17416,-0.71081 0.84817,-2.08096 0.42964,-0.87339 0.64834,-1.29184 0.79364,-1.5213 0.34057,-0.53645 0.76814,-0.84563 1.3212,-0.96348 0.30911,-0.0659 0.66795,-0.0471 1.0276,0.0527 0.33526,0.0933 0.66457,0.24278 1.81977,0.75744 1.15286,0.51362 1.48047,0.65526 1.77098,0.83978 0.3115,0.19785 0.56221,0.44882 0.71809,0.72027 0.19596,0.3413 0.28105,0.69687 0.25891,1.09269 -0.023,0.41086 -0.11959,0.72025 -0.67748,2.15091 -0.35739,0.9165 -0.53723,1.34552 -0.66513,1.58877 -0.27324,0.5179 -0.64313,0.8458 -1.14505,1.00595 -0.27809,0.0888 -0.55938,0.1143 -0.87816,0.0791 -0.41767,-0.0461 -0.83817,-0.17225 -2.39627,-0.87551 -0.47149,-0.21271 -0.90042,-0.4153 -1.03795,-0.48188 7e-5,-3e-5 1.4e-4,-5e-5 2e-4,-7e-5 z m 2.56553,0.43528 c 0.48579,0.1905 0.67925,0.2449 0.92284,0.26978 0.22151,0.0228 0.40973,0.002 0.59906,-0.0655 0.20998,-0.0749 0.35104,-0.17026 0.50247,-0.33878 0.2227,-0.24777 0.32224,-0.45825 0.8893,-1.87162 0.56728,-1.41395 0.64027,-1.63376 0.65755,-1.96484 0.0118,-0.22525 -0.0178,-0.38873 -0.10529,-0.58541 -0.0788,-0.17717 -0.18676,-0.31936 -0.34509,-0.45482 -0.2814,-0.24088 -0.44695,-0.30097 -1.90062,-0.94913 -1.45572,-0.64907 -1.61745,-0.73277 -1.98645,-0.78098 -0.20838,-0.0274 -0.38786,-0.0125 -0.57332,0.0474 -0.20586,0.0665 -0.3476,0.15398 -0.50679,0.31342 -0.234,0.23431 -0.34715,0.43579 -1.00988,1.80246 -0.66252,1.36623 -0.75098,1.58071 -0.78595,1.91088 -0.0237,0.2246 -7.3e-4,0.39231 0.0825,0.59739 0.0751,0.18497 0.1838,0.33786 0.34629,0.48622 0.17616,0.16078 0.35154,0.27309 0.77745,0.48943 0.2227,0.11288 2.20143,1.00355 2.43597,1.094 z m -0.89383,-1.61001 c -0.36583,-0.19983 -0.65584,-0.48934 -0.84495,-0.8414 -0.044,-0.0817 -0.12253,-0.27534 -0.14745,-0.363 -0.0982,-0.34522 -0.094,-0.69739 0.01,-1.03589 0.0355,-0.11555 0.13283,-0.32164 0.19933,-0.42252 0.1932,-0.29282 0.45871,-0.52002 0.77704,-0.66812 0.0907,-0.0423 0.28449,-0.10798 0.38305,-0.13006 0.3457,-0.0774 0.70439,-0.0628 1.05367,0.0425 0.1196,0.0362 0.33768,0.13353 0.44429,0.19836 0.31137,0.18955 0.56091,0.44651 0.73347,0.75529 0.0468,0.0837 0.12834,0.27372 0.15585,0.36312 0.10439,0.33926 0.11358,0.69113 0.0242,1.03419 -0.0306,0.11715 -0.11888,0.3277 -0.18114,0.43152 -0.18281,0.30453 -0.44188,0.54264 -0.76586,0.70008 -0.0824,0.04 -0.27923,0.11033 -0.36981,0.13207 -0.35392,0.0849 -0.73501,0.072 -1.08902,-0.0371 -0.11015,-0.0339 -0.29198,-0.10958 -0.38289,-0.15808 z m 0.63693,-0.44456 c 0.52384,0.12549 1.03841,-0.0593 1.33119,-0.47192 0.0401,-0.0567 0.0564,-0.0875 0.10494,-0.2006 0.0486,-0.11314 0.0583,-0.14653 0.0734,-0.21415 0.0987,-0.49727 -0.11241,-0.99234 -0.54555,-1.29347 -0.0598,-0.0415 -0.0914,-0.0581 -0.2094,-0.11082 -0.11808,-0.0528 -0.15197,-0.0637 -0.22232,-0.0821 -0.51378,-0.12183 -1.02369,0.0509 -1.32783,0.45586 -0.0417,0.0556 -0.0585,0.0858 -0.11028,0.1974 -0.069,0.14873 -0.0906,0.22602 -0.10514,0.3703 -0.0428,0.43584 0.17552,0.88574 0.56115,1.14698 0.0983,0.0666 0.10291,0.0693 0.24163,0.12888 0.0947,0.0402 0.14689,0.059 0.20826,0.0738 0,0 -4e-5,-1.7e-4 -4e-5,-1.7e-4 z m 2.61975,-1.81741 c -0.0632,-0.0502 -0.10405,-0.10412 -0.13687,-0.18087 -0.0491,-0.11458 -0.0501,-0.21931 -0.004,-0.3286 0.0315,-0.0741 0.0589,-0.10949 0.11836,-0.16217 0.0397,-0.0342 0.0661,-0.0495 0.12371,-0.0718 0.12221,-0.0473 0.23941,-0.0423 0.35889,0.0153 0.21762,0.1048 0.31472,0.34639 0.22551,0.56349 -0.0613,0.14902 -0.21326,0.254 -0.37846,0.26001 -0.0375,10e-4 -0.0859,-0.001 -0.10755,-0.005 -0.0589,-0.0114 -0.15856,-0.0554 -0.20029,-0.0893 1.1e-4,-1.9e-4 2.1e-4,-3.9e-4 3.2e-4,-5.8e-4 z"
         id="path71" /><path
         style="font-size:1.85934px;display:inline;opacity:1;stroke-width:2.09176;stroke-linejoin:round;stroke-miterlimit:1000"
         d="m 289.75554,270.5948 c -0.0512,0.19652 -0.12613,0.38238 -0.22553,0.5573 -0.0949,0.17601 -0.21324,0.32756 -0.35564,0.45425 -0.14121,0.12242 -0.29889,0.21037 -0.47284,0.2634 -0.17278,0.0489 -0.36172,0.0446 -0.56531,-0.0136 -0.21279,-0.0608 -0.36528,-0.16553 -0.45668,-0.3125 -0.0854,-0.14992 -0.11945,-0.3012 -0.10334,-0.45349 -0.011,-0.003 -0.0221,-0.007 -0.0331,-0.01 -0.1296,0.13187 -0.29097,0.22626 -0.48428,0.28228 -0.19325,0.056 -0.41219,0.0455 -0.65486,-0.0325 -0.35278,-0.11351 -0.58653,-0.31102 -0.69961,-0.58779 -0.11315,-0.27711 -0.10708,-0.59157 0.0144,-0.94389 0.0939,-0.2725 0.23558,-0.49574 0.42283,-0.67058 0.1873,-0.17487 0.40378,-0.28851 0.64957,-0.34222 0.24997,-0.0522 0.5155,-0.0327 0.79923,0.0573 0.19196,0.0609 0.37443,0.13629 0.54797,0.2263 0.1792,0.087 0.31589,0.16448 0.41035,0.23385 -0.1485,0.42427 -0.29758,0.84838 -0.44725,1.27234 -0.0273,0.0751 -0.046,0.12941 -0.056,0.1632 -0.009,0.0296 -0.015,0.0508 -0.0188,0.0636 -0.0664,0.2248 -0.0693,0.38525 -0.008,0.48169 0.0669,0.0934 0.15801,0.15663 0.27284,0.18939 0.14225,0.0406 0.27692,0.0209 0.40298,-0.0589 0.13169,-0.0826 0.24697,-0.20677 0.34612,-0.37221 0.10358,-0.16418 0.18496,-0.35718 0.24519,-0.57894 0.10649,-0.39211 0.11222,-0.7503 0.0221,-1.07338 -0.0858,-0.3221 -0.25035,-0.59623 -0.49336,-0.82464 -0.23889,-0.22727 -0.53475,-0.39578 -0.89107,-0.50866 -0.4895,-0.15507 -0.93458,-0.19448 -1.34171,-0.11372 -0.4027,0.0822 -0.75532,0.26302 -1.05752,0.54616 -0.29622,0.28032 -0.52676,0.64069 -0.68659,1.08308 -0.22325,0.61793 -0.22064,1.15455 0.0197,1.61046 0.23969,0.45466 0.70367,0.79971 1.38816,1.01778 0.28389,0.0905 0.56408,0.14479 0.83903,0.16322 0.27832,0.024 0.52819,0.0304 0.74884,0.0205 l -0.12566,0.43321 c -0.2248,0.0182 -0.47192,0.0127 -0.74054,-0.0176 -0.26494,-0.0245 -0.55073,-0.0848 -0.85566,-0.1818 -0.55342,-0.17607 -0.9938,-0.42742 -1.3176,-0.74581 -0.32406,-0.31865 -0.52454,-0.68795 -0.60371,-1.10398 -0.0731,-0.41892 -0.0174,-0.8692 0.1615,-1.35233 0.14339,-0.38719 0.3402,-0.72156 0.58713,-1.00434 0.24851,-0.287 0.53476,-0.50844 0.85744,-0.66622 0.32427,-0.16201 0.67477,-0.25229 1.05277,-0.27312 0.38388,-0.0237 0.78411,0.0324 1.20564,0.16622 0.44268,0.14049 0.80887,0.35003 1.10424,0.63358 0.2951,0.28329 0.49786,0.62115 0.60769,1.0169 0.11415,0.39637 0.11319,0.83245 -0.0105,1.30655 -1.9e-4,-1.4e-4 -3.7e-4,-2.8e-4 -5.6e-4,-4.1e-4 z m -3.5201,-0.60761 c -0.0914,0.27333 -0.10139,0.48948 -0.0286,0.64898 0.074,0.15518 0.21146,0.26557 0.41158,0.32969 0.25485,0.0816 0.46533,0.0495 0.62926,-0.0943 0.1687,-0.14257 0.30456,-0.3531 0.40919,-0.63126 0.0944,-0.26038 0.18865,-0.52082 0.28266,-0.78132 -0.0526,-0.0335 -0.12078,-0.0707 -0.20473,-0.11172 -0.0839,-0.041 -0.17191,-0.0761 -0.26417,-0.10536 -0.21545,-0.0683 -0.40498,-0.074 -0.5701,-0.0163 -0.16509,0.0577 -0.30304,0.15664 -0.4136,0.29739 -0.10935,0.13641 -0.1932,0.29064 -0.25082,0.46299 0,0 -6.5e-4,0.001 -6.5e-4,0.001 z m 6.03333,-0.0867 c 0.2338,0.0485 0.43483,0.13322 0.60476,0.2555 0.17405,0.12303 0.31235,0.28496 0.41542,0.48684 0.0109,0.002 0.0218,0.004 0.0326,0.006 0.0542,-0.1493 0.10815,-0.29868 0.16176,-0.44815 0.15529,0.0272 0.31068,0.0534 0.46618,0.0787 l -0.57877,3.55675 c -0.0815,0.50056 -0.28656,0.85332 -0.62423,1.05491 -0.33142,0.20172 -0.80903,0.24709 -1.42038,0.12302 -0.58595,-0.11893 -1.04702,-0.29995 -1.37927,-0.53148 l 0.12328,-0.52177 c 0.33992,0.26998 0.80436,0.46939 1.38954,0.58778 0.33944,0.0687 0.62363,0.0303 0.84803,-0.11194 0.22899,-0.13731 0.36861,-0.35877 0.4227,-0.66255 l 0.0243,-0.13653 c 0.009,-0.0521 0.0249,-0.12534 0.047,-0.21992 0.0228,-0.099 0.0403,-0.16751 0.0525,-0.20556 -0.009,-0.002 -0.018,-0.003 -0.027,-0.005 -0.32034,0.30532 -0.75556,0.40771 -1.29417,0.29689 -0.49993,-0.10287 -0.85523,-0.34861 -1.06035,-0.72675 -0.20091,-0.37803 -0.22795,-0.84753 -0.0914,-1.40964 0.1333,-0.54869 0.37137,-0.95214 0.70416,-1.21342 0.33905,-0.26516 0.73098,-0.34711 1.1852,-0.25281 -6.4e-4,-3e-4 -10e-4,-5.9e-4 -0.002,-8.8e-4 z m -0.0188,0.4959 c -0.29904,-0.0614 -0.55546,0.004 -0.77345,0.19969 -0.21657,0.19076 -0.37593,0.49868 -0.47311,0.92432 -0.0973,0.42602 -0.0889,0.7714 0.0296,1.0375 0.11922,0.26126 0.34893,0.42895 0.68687,0.49785 0.38536,0.0786 0.68542,0.0379 0.8952,-0.11611 0.21121,-0.15872 0.35194,-0.44891 0.42687,-0.87014 l 0.0243,-0.13689 c 0.0841,-0.47264 0.0571,-0.82957 -0.0758,-1.06873 -0.13336,-0.23982 -0.37939,-0.39346 -0.74086,-0.46769 10e-5,6e-5 1.9e-4,1.3e-4 2.9e-4,2e-4 z m 4.51632,0.16179 c 0.067,0.005 0.13814,0.0159 0.21347,0.0311 0.0757,0.0104 0.14435,0.0236 0.20614,0.0399 -0.0375,0.17695 -0.0754,0.35382 -0.11361,0.53061 -0.0581,-0.0185 -0.12313,-0.0341 -0.19513,-0.0469 -0.0718,-0.0152 -0.13711,-0.0253 -0.19616,-0.0302 -0.18588,-0.0156 -0.36479,0.0189 -0.53876,0.10379 -0.17328,0.0804 -0.32044,0.2044 -0.44162,0.373 -0.11584,0.16471 -0.18852,0.36514 -0.21583,0.60169 l -0.21712,1.88043 c -0.21552,-0.0253 -0.43067,-0.0523 -0.64543,-0.0809 l 0.4635,-3.5153 c 0.16046,0.021 0.32103,0.0409 0.4817,0.0597 -0.003,0.21729 -0.006,0.43461 -0.008,0.65198 0.009,9.9e-4 0.0171,0.002 0.0256,0.003 0.13598,-0.17977 0.30343,-0.32984 0.50193,-0.4517 0.20307,-0.12139 0.42803,-0.17113 0.67822,-0.15066 4.1e-4,1.8e-4 8.1e-4,3.6e-4 10e-4,5.4e-4 z m 2.3085,0.11655 c 0.4342,0.004 0.75579,0.0911 0.97198,0.27561 0.21515,0.18336 0.3351,0.48164 0.35158,0.89624 l 0.096,2.41577 c -0.16012,0.007 -0.32034,0.0118 -0.48063,0.016 -0.0467,-0.16671 -0.0926,-0.33353 -0.13793,-0.50047 -0.009,2e-4 -0.0186,3.9e-4 -0.0278,5.8e-4 -0.16886,0.19785 -0.35186,0.34377 -0.54688,0.43721 -0.19474,0.0934 -0.4624,0.13928 -0.79949,0.13179 -0.3675,-0.008 -0.66951,-0.10534 -0.90001,-0.28575 -0.0258,-0.0207 -0.05,-0.0426 -0.0726,-0.0656 0,0 0,0 0,0 -0.17649,-0.18321 -0.25231,-0.43631 -0.2317,-0.75782 0.0175,-0.27365 0.1229,-0.49221 0.31182,-0.65757 0,0 0,0 0,0 0.0551,-0.0482 0.1173,-0.0919 0.18653,-0.1314 0.3087,-0.18023 0.76362,-0.26607 1.37639,-0.28185 0.21268,-0.006 0.42514,-0.0153 0.63736,-0.0265 l -0.004,-0.21201 c -0.006,-0.29575 -0.0764,-0.50011 -0.20897,-0.6132 -0.13295,-0.11334 -0.31766,-0.16935 -0.55659,-0.17146 -0.18937,-0.002 -0.36997,0.0236 -0.54336,0.0762 -0.17341,0.0482 -0.33659,0.10394 -0.48984,0.16789 -0.0549,-0.14872 -0.10887,-0.29764 -0.16184,-0.44675 0.16119,-0.0756 0.3491,-0.13776 0.56428,-0.18833 0.21547,-0.0549 0.43727,-0.081 0.66764,-0.0792 -6.1e-4,2.4e-4 -10e-4,4.7e-4 -0.002,7.1e-4 z m 0.73336,1.87161 c -0.18679,0.0107 -0.3738,0.0196 -0.56099,0.0267 -0.4744,0.0166 -0.80424,0.0764 -0.99566,0.19555 -0.18562,0.11763 -0.28543,0.28804 -0.29524,0.51349 -0.009,0.19903 0.051,0.34793 0.18077,0.4454 0.1348,0.0976 0.30967,0.14927 0.52266,0.15308 0.3321,0.006 0.61051,-0.0762 0.83009,-0.24153 0.22447,-0.16999 0.33058,-0.42894 0.32409,-0.77334 -0.002,-0.10645 -0.004,-0.2129 -0.006,-0.31935 z m 2.81091,1.5583 c -0.63052,-1.12171 -1.20679,-2.26145 -1.72669,-3.41622 0.20842,-0.0122 0.41672,-0.0267 0.62486,-0.0436 0.30904,0.67461 0.63651,1.34412 0.98204,2.00797 0.0485,0.0924 0.10074,0.19533 0.15713,0.30893 0.0563,0.11358 0.108,0.2231 0.1549,0.32878 0.0466,0.10578 0.0815,0.19249 0.10456,0.26084 0.009,-10e-4 0.0184,-0.002 0.0276,-0.003 0.007,-0.072 0.0233,-0.16476 0.0475,-0.27899 0.0248,-0.11852 0.0516,-0.23747 0.0802,-0.35686 0.0281,-0.12369 0.0547,-0.23598 0.08,-0.33723 0.17958,-0.72649 0.34038,-1.45415 0.48263,-2.18233 0.20652,-0.0325 0.41272,-0.0672 0.61858,-0.10416 -0.23803,1.24443 -0.53211,2.4878 -0.88352,3.72665 -0.24949,0.0327 -0.49942,0.0626 -0.74973,0.0895 z m 2.2132,-5.28502 c 0.0832,-0.0176 0.16236,-0.003 0.23807,0.0435 0.0788,0.0415 0.13239,0.12452 0.16015,0.24946 0.0278,0.12494 0.0147,0.22514 -0.04,0.30062 -0.0515,0.0701 -0.12022,0.11429 -0.20569,0.1323 -0.0939,0.0198 -0.17887,0.008 -0.25418,-0.0355 -0.0763,-0.0476 -0.12642,-0.13448 -0.15129,-0.26024 -0.0248,-0.12549 -0.0112,-0.22274 0.0402,-0.29167 0.0506,-0.0732 0.12132,-0.11921 0.21278,-0.13849 z m 0.5542,1.24197 0.76344,3.46618 c -0.2144,0.0471 -0.42928,0.0921 -0.64461,0.13495 l -0.69399,-3.48022 c 0.19208,-0.0384 0.38381,-0.0787 0.57516,-0.12091 z m 1.81687,2.8475 c -0.0408,-0.15821 -0.0265,-0.28047 0.0418,-0.36673 0.0683,-0.0864 0.16078,-0.14519 0.278,-0.17705 0.11747,-0.0319 0.22938,-0.0287 0.33666,0.01 0.10712,0.0385 0.18377,0.13602 0.22892,0.29312 0.0439,0.15277 0.0305,0.27611 -0.0414,0.37002 -0.0718,0.0938 -0.16846,0.15745 -0.28918,0.19023 -0.12073,0.0328 -0.23386,0.0261 -0.33843,-0.0197 -0.10489,-0.0456 -0.17667,-0.14569 -0.21638,-0.2998 z m 3.64839,-0.71111 c -0.33661,0.12724 -0.65787,0.17412 -0.95803,0.14254 -0.30025,-0.0316 -0.56744,-0.15282 -0.79945,-0.36086 -0.22765,-0.20988 -0.40204,-0.51556 -0.52942,-0.91588 -0.13251,-0.41644 -0.16878,-0.77894 -0.11475,-1.08417 0.0586,-0.30726 0.18749,-0.56207 0.38641,-0.76707 0.19924,-0.20522 0.447,-0.36279 0.74692,-0.47703 0.1667,-0.0635 0.33569,-0.10831 0.50799,-0.13457 0.17495,-0.0319 0.32193,-0.0447 0.44189,-0.0371 0.006,0.17234 0.0112,0.34487 0.0154,0.51759 -0.1163,0.005 -0.24832,0.0176 -0.39663,0.0381 -0.14818,0.0205 -0.28126,0.053 -0.3999,0.0981 -0.66217,0.25176 -0.8665,0.78618 -0.57642,1.63811 0.13828,0.40612 0.32976,0.68832 0.58115,0.84448 0.2536,0.14991 0.5594,0.16133 0.90976,0.0289 0.19789,-0.0748 0.36748,-0.16221 0.50818,-0.26081 0.14055,-0.0986 0.26317,-0.20104 0.36785,-0.30654 l 0.19782,0.47815 c -0.10035,0.10839 -0.22141,0.20772 -0.36297,0.29728 -0.13517,0.0919 -0.31051,0.17952 -0.52545,0.26077 -1.1e-4,4e-5 -2.2e-4,8e-5 -3.3e-4,1.2e-4 z m 1.56338,-4.70072 c 0.39111,-0.19598 0.71986,-0.26424 0.99725,-0.1974 0.27606,0.0663 0.51798,0.2792 0.71954,0.64305 l 1.17431,2.11991 c -0.13972,0.0773 -0.27997,0.15372 -0.42074,0.2291 -0.11683,-0.12823 -0.23314,-0.25681 -0.34894,-0.38576 -0.008,0.004 -0.0163,0.009 -0.0245,0.013 -0.0609,0.25265 -0.15755,0.46508 -0.28834,0.63603 -0.13059,0.17083 -0.34713,0.33179 -0.64898,0.47681 -0.32902,0.15808 -0.64008,0.20783 -0.92615,0.15183 -0.28808,-0.0599 -0.50293,-0.25883 -0.64804,-0.59131 -0.14159,-0.32443 -0.11075,-0.63385 0.0816,-0.92943 0.19157,-0.30109 0.55733,-0.58572 1.09722,-0.878 0.18695,-0.10235 0.37284,-0.20653 0.55762,-0.31252 l -0.0995,-0.18773 c -0.13877,-0.26191 -0.2945,-0.41252 -0.46451,-0.45329 -0.17045,-0.0408 -0.36143,-0.007 -0.57634,0.10075 -0.17033,0.0851 -0.32046,0.19036 -0.45144,0.31679 -0.13304,0.12246 -0.25327,0.24707 -0.36069,0.3744 -0.11698,-0.10695 -0.23325,-0.21441 -0.34881,-0.32238 0.10926,-0.14162 0.2488,-0.28366 0.4183,-0.4278 0.16782,-0.14809 0.35469,-0.27344 0.56215,-0.3774 -3.6e-4,4.4e-4 -7.1e-4,8.9e-4 -10e-4,0.001 z m 1.50437,1.33824 c -0.16206,0.0939 -0.32497,0.18637 -0.48872,0.27749 -0.41555,0.22965 -0.68184,0.43317 -0.7975,0.62616 -0.11127,0.18914 -0.12183,0.38607 -0.0275,0.591 0.0833,0.18092 0.2041,0.28627 0.36353,0.31431 0.1639,0.0259 0.34234,-0.007 0.53296,-0.0997 0.29726,-0.14443 0.50732,-0.34281 0.62784,-0.5893 0.12276,-0.2528 0.10039,-0.53205 -0.0611,-0.83704 -0.0498,-0.0943 -0.0996,-0.18864 -0.14948,-0.28295 z m 2.03049,-3.4217 c 0.36506,-0.24847 0.74039,-0.33043 1.14052,-0.24462 0.40197,0.0827 0.79416,0.36501 1.16411,0.85592 0.36536,0.48482 0.52612,0.93966 0.46889,1.37258 -0.053,0.42835 -0.2881,0.79137 -0.70224,1.07305 -0.25649,0.17444 -0.50026,0.27367 -0.72704,0.29913 -0.22268,0.0228 -0.41991,0.003 -0.59108,-0.0561 -0.0126,0.008 -0.0251,0.0158 -0.0377,0.0237 0.0443,0.0609 0.10167,0.13745 0.17188,0.22906 0.0747,0.0889 0.13455,0.16892 0.17943,0.24032 l 0.77756,1.23692 c -0.19461,0.12227 -0.39037,0.24266 -0.58726,0.36115 l -2.65841,-4.41442 c 0.138,-0.0831 0.27535,-0.16734 0.41203,-0.25262 0.1083,0.12289 0.21694,0.24553 0.32593,0.36791 0.007,-0.005 0.0145,-0.009 0.0217,-0.0137 0.01,-0.18927 0.0599,-0.37562 0.14904,-0.55993 0.0891,-0.18431 0.25366,-0.35576 0.4936,-0.51908 -3.3e-4,2.5e-4 -6.6e-4,5e-4 -9.9e-4,7.6e-4 z m 0.18624,0.46753 c -0.30801,0.20805 -0.47355,0.43503 -0.49518,0.69084 -0.0215,0.25477 0.0743,0.56132 0.2915,0.91596 l 0.0601,0.0956 c 0.23343,0.37143 0.47773,0.61718 0.73857,0.73494 0.26158,0.11082 0.57754,0.0484 0.93741,-0.19488 0.1963,-0.1327 0.32599,-0.29276 0.38834,-0.47699 0.0599,-0.18817 0.0581,-0.38816 -0.004,-0.59958 -0.0586,-0.21427 -0.16656,-0.42829 -0.32221,-0.64366 -0.2384,-0.32989 -0.49804,-0.54437 -0.77315,-0.64698 -0.27226,-0.10548 -0.5434,-0.063 -0.82123,0.12472 4e-5,3e-5 9e-5,5e-5 1.4e-4,8e-5 z"
         id="path72"
         aria-label="@gravi.cap" /></g><g
       id="g20"
       style="font-size:16.2854px;letter-spacing:1.5622px;word-spacing:3.7082px;display:inline;fill:#8114c2;stroke:#820ec8;stroke-width:0.701008;stroke-linecap:round"
       transform="matrix(-0.8689226,0,0,-0.97351018,174.01396,335.20592)"
       aria-label="GRAVICAP"
       inkscape:label="Nombre Arriba"
       inkscape:highlight-color="#510981"><g
         id="g11"
         inkscape:label="P"><path
           style="font-family:Carlito;-inkscape-font-specification:'Carlito, Normal';font-variant-ligatures:discretionary-ligatures no-contextual;text-align:center;text-anchor:middle"
           d="m 134.20783,213.66057 2.04764,3.32832 c -0.51053,0.31493 -1.02445,0.62489 -1.54167,0.92974 l -5.31654,-9.03428 c 0.94924,-0.55763 1.88782,-1.13432 2.8148,-1.72892 0.59028,-0.37863 1.13856,-0.64895 1.65288,-0.80897 0.51885,-0.1632 0.99781,-0.22857 1.44001,-0.19328 0.44196,0.0353 0.84819,0.16735 1.2183,0.39896 0.37177,0.22376 0.70275,0.53481 0.9899,0.93548 0.28416,0.39649 0.46708,0.81311 0.54529,1.25218 0.0832,0.43531 0.0581,0.8823 -0.0786,1.34008 -0.13454,0.44978 -0.38394,0.89974 -0.75012,1.34585 -0.3638,0.43801 -0.85094,0.85761 -1.46048,1.25075 -0.51684,0.33335 -1.03737,0.66143 -1.56145,0.98409 z"
           id="path9"
           inkscape:label="P" /><path
           style="font-size:16.2854px;font-family:Carlito;-inkscape-font-specification:'Carlito, Normal';font-variant-ligatures:discretionary-ligatures no-contextual;text-align:center;letter-spacing:1.5622px;word-spacing:3.7082px;text-anchor:middle;display:inline;fill:#ffffff;fill-opacity:1;stroke:none;stroke-width:0.701008;stroke-linecap:round"
           d="m 133.60608,212.68246 c 0.51735,-0.31832 1.03124,-0.64198 1.54155,-0.97082 0.36636,-0.23608 0.66024,-0.49251 0.88108,-0.76638 0.22088,-0.27393 0.36954,-0.55314 0.44663,-0.83602 0.0822,-0.28637 0.0932,-0.57036 0.0343,-0.85159 -0.0539,-0.28475 -0.17187,-0.55782 -0.35242,-0.82016 -0.37903,-0.55073 -0.84945,-0.85536 -1.40492,-0.92194 -0.55984,-0.0711 -1.19534,0.13089 -1.92286,0.59802 -0.48596,0.31203 -0.97512,0.61919 -1.46736,0.92132 0.74802,1.21585 1.49603,2.43171 2.24405,3.64757 z"
           id="path10"
           inkscape:label="P-Ex" /></g><g
         id="g12"
         inkscape:label="A2"><path
           style="font-family:Carlito;-inkscape-font-specification:'Carlito, Normal';font-variant-ligatures:discretionary-ligatures no-contextual;text-align:center;text-anchor:middle"
           d="m 131.69006,219.62195 c -0.41022,0.22056 -0.82229,0.43791 -1.23617,0.65198 -0.1409,0.0729 -0.27023,0.10338 -0.38748,0.0917 -0.1114,-0.0147 -0.21232,-0.0528 -0.30274,-0.11424 -0.71006,-0.58162 -1.41179,-1.16999 -2.10493,-1.76497 -1.55499,0.76661 -3.13377,1.48528 -4.73349,2.15254 -0.005,0.90827 -0.0211,1.8183 -0.0485,2.72991 -0.003,0.0984 -0.0438,0.20052 -0.12266,0.30613 -0.0727,0.10314 -0.18009,0.18273 -0.32188,0.23831 -0.43461,0.17037 -0.87071,0.33708 -1.30824,0.50006 0.30685,-3.833 0.39969,-7.64487 0.29423,-11.41843 0.49083,-0.21837 0.97971,-0.4421 1.46655,-0.67105 2.77655,2.55341 5.71827,4.99007 8.8053,7.29806 z"
           id="path11"
           inkscape:label="A2" /><path
           style="font-size:16.2854px;font-family:Carlito;-inkscape-font-specification:'Carlito, Normal';font-variant-ligatures:discretionary-ligatures no-contextual;text-align:center;letter-spacing:1.5622px;word-spacing:3.7082px;text-anchor:middle;display:inline;fill:#ffffff;fill-opacity:1;stroke:none;stroke-width:0.701008;stroke-linecap:round"
           d="m 122.92749,219.51464 c 1.30826,-0.55456 2.6024,-1.14396 3.88081,-1.7662 -1.14422,-1.00715 -2.26426,-2.03245 -3.35899,-3.07521 -0.10781,-0.0907 -0.2243,-0.20088 -0.34933,-0.3306 -0.12501,-0.12973 -0.2525,-0.27298 -0.38248,-0.42978 0.0299,0.20836 0.0528,0.40233 0.0687,0.58188 0.0159,0.17952 0.0253,0.33859 0.0285,0.47705 0.0679,1.50841 0.10578,3.02303 0.11281,4.54286 z"
           id="path12"
           inkscape:label="A2-Ex" /></g><path
         style="font-family:Carlito;-inkscape-font-specification:'Carlito, Normal';font-variant-ligatures:discretionary-ligatures no-contextual;text-align:center;text-anchor:middle"
         d="m 117.23328,223.46533 c 0.0858,-0.028 0.17532,-0.0239 0.26885,0.0121 0.28562,0.12334 0.57268,0.24518 0.86117,0.3655 -0.2765,0.61984 -0.70046,1.16791 -1.2723,1.63677 -0.57169,0.46873 -1.3244,0.8409 -2.2514,1.10103 -0.81841,0.22966 -1.59884,0.29972 -2.32884,0.21455 -0.72387,-0.0868 -1.37453,-0.30691 -1.94756,-0.65455 -0.56818,-0.35442 -1.04222,-0.82565 -1.4253,-1.40922 -0.37815,-0.59034 -0.64085,-1.27195 -0.79878,-2.04314 -0.15781,-0.77053 -0.17517,-1.50069 -0.0633,-2.18777 0.11083,-0.69255 0.33269,-1.31633 0.66087,-1.87328 0.32839,-0.5573 0.75542,-1.03363 1.2827,-1.43498 0.52758,-0.40158 1.13926,-0.69969 1.84446,-0.90232 0.69981,-0.20107 1.34451,-0.27469 1.94497,-0.2155 0.60553,0.0574 1.17223,0.20931 1.70295,0.4595 -0.0952,0.26755 -0.19205,0.53494 -0.2907,0.80216 -0.0187,0.0565 -0.0484,0.10819 -0.0892,0.15509 -0.0408,0.0469 -0.10061,0.0833 -0.1795,0.10914 -0.0958,0.0313 -0.21773,0.0208 -0.36506,-0.0319 -0.14181,-0.0546 -0.32195,-0.10524 -0.5406,-0.15308 -0.22021,-0.0529 -0.48116,-0.0825 -0.78337,-0.0904 -0.30234,-0.008 -0.65676,0.0482 -1.0666,0.16568 -0.48266,0.13831 -0.90198,0.34905 -1.26247,0.63582 -0.35468,0.28517 -0.63857,0.63525 -0.85283,1.05288 -0.20968,0.41088 -0.34262,0.88293 -0.39688,1.41665 -0.0496,0.52696 -0.005,1.10295 0.1384,1.72559 0.14502,0.62836 0.36486,1.16824 0.66601,1.61905 0.30101,0.45059 0.65539,0.8063 1.06444,1.06531 0.40886,0.2589 0.85861,0.4212 1.34683,0.48473 0.49441,0.0618 0.99904,0.0211 1.50848,-0.12285 0.31439,-0.0889 0.58871,-0.18777 0.82236,-0.29529 0.23998,-0.1094 0.45206,-0.23125 0.63599,-0.36479 0.18862,-0.14053 0.35528,-0.29474 0.49985,-0.46218 0.14918,-0.17444 0.28778,-0.36854 0.41544,-0.58214 0.0755,-0.10221 0.15898,-0.16826 0.25091,-0.19826 z"
         id="path13"
         inkscape:label="C" /><path
         style="font-size:16.2854px;font-family:Carlito;-inkscape-font-specification:'Carlito, Normal';font-variant-ligatures:discretionary-ligatures no-contextual;text-align:center;letter-spacing:1.5622px;word-spacing:3.7082px;text-anchor:middle;display:inline;fill:#8114c2;stroke:#820ec8;stroke-width:0.701008;stroke-linecap:round"
         d="m 105.15422,228.5221 c -0.59959,0.0863 -1.20061,0.16523 -1.80294,0.23662 l -1.21834,-10.33327 c 0.51341,-0.0602 1.02632,-0.1272 1.53862,-0.20097 z"
         id="path14"
         inkscape:label="I" /><path
         style="font-size:16.2854px;font-family:Carlito;-inkscape-font-specification:'Carlito, Normal';font-variant-ligatures:discretionary-ligatures no-contextual;text-align:center;letter-spacing:1.5622px;word-spacing:3.7082px;text-anchor:middle;display:inline;fill:#8114c2;stroke:#820ec8;stroke-width:0.701008;stroke-linecap:round"
         d="m 89.258371,218.47047 c 0.412889,0.0465 0.826206,0.0882 1.239854,0.12506 0.135059,0.012 0.242028,0.053 0.321323,0.12329 0.07928,0.0703 0.135003,0.15445 0.167011,0.25261 0.724945,2.50357 1.574371,4.99472 2.551032,7.46539 0.07258,0.16652 0.142126,0.34875 0.20869,0.54666 0.0732,0.19277 0.137129,0.39583 0.191561,0.60914 0.05732,-0.21068 0.120453,-0.41074 0.189278,-0.60014 0.07544,-0.19458 0.153154,-0.37339 0.233211,-0.53637 0.129182,-0.28836 0.256602,-0.57717 0.38225,-0.86642 0.927946,-2.14056 1.761183,-4.29581 2.502987,-6.46224 0.0312,-0.0909 0.09107,-0.17207 0.179347,-0.24377 0.08829,-0.0717 0.197327,-0.10993 0.327586,-0.11501 0.416293,-0.0162 0.832456,-0.0372 1.248432,-0.0629 -1.172799,3.55043 -2.597464,7.07163 -4.289707,10.54641 -0.0013,-1e-5 -0.0027,-1e-5 -0.004,-2e-5 -0.552478,-0.006 -1.1045,-0.02 -1.655935,-0.0405 -1.53768,-3.54057 -2.799036,-7.12981 -3.792891,-10.74121 z"
         id="path15"
         inkscape:label="V" /><g
         id="g17"
         inkscape:label="A1"><path
           style="font-size:16.2854px;font-family:Carlito;-inkscape-font-specification:'Carlito, Normal';font-variant-ligatures:discretionary-ligatures no-contextual;text-align:center;letter-spacing:1.5622px;word-spacing:3.7082px;text-anchor:middle;display:inline;fill:#8114c2;stroke:#820ec8;stroke-width:0.701008;stroke-linecap:round"
           d="m 86.879848,228.68904 c -0.469856,-0.0621 -0.938907,-0.12927 -1.40707,-0.20138 -0.15938,-0.0246 -0.283907,-0.0764 -0.373219,-0.15503 -0.0827,-0.0775 -0.142707,-0.16773 -0.180106,-0.27039 -0.234489,-0.88563 -0.454344,-1.77207 -0.65968,-2.659 -1.714232,-0.31011 -3.415162,-0.6902 -5.097988,-1.13785 -0.559172,0.71408 -1.130877,1.42188 -1.714923,2.12312 -0.06309,0.0756 -0.158781,0.13109 -0.287215,0.16584 -0.121983,0.0366 -0.25727,0.0333 -0.405266,-0.0101 -0.453613,-0.13304 -0.905805,-0.27079 -1.356491,-0.4132 2.625895,-2.81918 5.029203,-5.7698 7.193875,-8.82899 0.51024,0.12165 1.021981,0.23617 1.53503,0.34347 0.653612,3.68931 1.568365,7.37928 2.753053,11.04351 z"
           id="path16"
           inkscape:label="A1" /><path
           style="font-size:16.2854px;font-family:Carlito;-inkscape-font-specification:'Carlito, Normal';font-variant-ligatures:discretionary-ligatures no-contextual;text-align:center;letter-spacing:1.5622px;word-spacing:3.7082px;text-anchor:middle;display:inline;fill:#ffffff;fill-opacity:1;stroke:none;stroke-width:0.701008;stroke-linecap:round"
           d="m 79.84943,223.37852 c 1.377393,0.35649 2.766643,0.66695 4.165001,0.92999 -0.319147,-1.48445 -0.598065,-2.9698 -0.837271,-4.45454 -0.03071,-0.13669 -0.05654,-0.29407 -0.07729,-0.4721 -0.02076,-0.17804 -0.03529,-0.36832 -0.04357,-0.57087 -0.100508,0.18362 -0.198124,0.35153 -0.292707,0.50376 -0.09457,0.15221 -0.182121,0.28428 -0.26233,0.39618 -0.847914,1.23898 -1.732162,2.46195 -2.651836,3.66758 z"
           id="path17"
           inkscape:label="A1-Ex" /></g><g
         id="g19"
         inkscape:label="R"><path
           style="font-size:16.2854px;font-family:Carlito;-inkscape-font-specification:'Carlito, Normal';font-variant-ligatures:discretionary-ligatures no-contextual;text-align:center;letter-spacing:1.5622px;word-spacing:3.7082px;text-anchor:middle;display:inline;fill:#8114c2;stroke:#820ec8;stroke-width:0.701008;stroke-linecap:round"
           d="m 68.069681,218.55989 -1.890007,3.90791 c -0.549164,-0.26539 -1.094833,-0.53806 -1.636826,-0.81791 l 4.7953,-9.28239 c 0.910454,0.47063 1.833083,0.91758 2.76648,1.34012 0.622574,0.28183 1.135133,0.57662 1.541074,0.89532 0.412855,0.31571 0.723651,0.64812 0.931321,1.00287 0.214971,0.35192 0.334121,0.72321 0.354529,1.11612 0.02227,0.38774 -0.04235,0.79078 -0.198017,1.20753 -0.127919,0.34247 -0.306214,0.64058 -0.537663,0.8931 -0.22571,0.2546 -0.495813,0.45814 -0.811425,0.60876 -0.309778,0.15279 -0.661105,0.25134 -1.053379,0.29332 -0.390216,0.037 -0.809745,0.0137 -1.25604,-0.0721 0.07516,0.0952 0.141834,0.19518 0.20003,0.29996 0.06024,0.0999 0.111798,0.21319 0.154814,0.33995 0.500867,1.69822 1.078026,3.39667 1.732674,5.08967 -0.511788,-0.1813 -1.021402,-0.36865 -1.528715,-0.562 -0.294466,-0.11223 -0.487023,-0.29277 -0.576625,-0.53862 -0.511345,-1.53345 -0.96167,-3.06854 -1.351829,-4.60131 -0.03887,-0.14509 -0.0999,-0.26259 -0.18336,-0.35273 -0.07561,-0.0924 -0.213196,-0.18399 -0.412861,-0.27621 -0.34792,-0.16072 -0.69443,-0.32453 -1.039475,-0.49139 z"
           id="path18"
           inkscape:label="R" /><path
           style="font-size:16.2854px;font-family:Carlito;-inkscape-font-specification:'Carlito, Normal';font-variant-ligatures:discretionary-ligatures no-contextual;text-align:center;letter-spacing:1.5622px;word-spacing:3.7082px;text-anchor:middle;display:inline;fill:#ffffff;fill-opacity:1;stroke:none;stroke-width:0.701008;stroke-linecap:round"
           d="m 68.53007,217.60796 c 0.475754,0.2301 0.954336,0.45429 1.435594,0.6725 0.40523,0.18374 0.781442,0.29688 1.124824,0.34122 0.351273,0.0419 0.666816,0.0223 0.945169,-0.0571 0.278459,-0.0794 0.514856,-0.21465 0.709694,-0.40426 0.20251,-0.1923 0.359244,-0.429 0.472193,-0.70913 0.46861,-1.16221 -0.08616,-2.03113 -1.581293,-2.70779 -0.470448,-0.21291 -0.938204,-0.43191 -1.403098,-0.6569 z"
           id="path19"
           inkscape:label="R-Ex" /></g><path
         style="font-size:16.2854px;font-family:Carlito;-inkscape-font-specification:'Carlito, Normal';font-variant-ligatures:discretionary-ligatures no-contextual;text-align:center;letter-spacing:1.5622px;word-spacing:3.7082px;text-anchor:middle;display:inline;fill:#8114c2;stroke:#820ec8;stroke-width:0.701008;stroke-linecap:round"
         d="m 61.109912,218.57641 c -0.737621,-0.005 -1.467195,-0.12668 -2.180942,-0.36547 -0.707899,-0.23508 -1.418237,-0.5955 -2.119546,-1.08184 -0.844936,-0.58595 -1.522315,-1.24171 -2.027015,-1.94847 -0.49958,-0.70303 -0.824045,-1.42156 -0.97727,-2.14378 -0.149939,-0.7265 -0.126658,-1.43813 0.06133,-2.13146 0.191548,-0.69793 0.54912,-1.3435 1.061063,-1.94534 0.514974,-0.60541 1.090231,-1.06679 1.715054,-1.39289 0.633184,-0.32651 1.286765,-0.51444 1.959541,-0.57062 0.681177,-0.0567 1.369318,0.0207 2.072326,0.2277 0.703579,0.20713 1.393566,0.55233 2.087539,1.03634 0.354003,0.2469 0.664451,0.49636 0.93203,0.75146 0.275167,0.25381 0.513352,0.51376 0.71479,0.78181 0.204261,0.26357 0.375451,0.53443 0.513487,0.81384 0.142915,0.28241 0.261839,0.56962 0.356471,0.86224 -0.239224,0.10936 -0.479541,0.21743 -0.720939,0.32418 -0.115554,0.0534 -0.230597,0.0603 -0.344677,0.0207 -0.114085,-0.0396 -0.209067,-0.12713 -0.284005,-0.2621 -0.07775,-0.13039 -0.160368,-0.28015 -0.247072,-0.44893 -0.07896,-0.1702 -0.188285,-0.35102 -0.327422,-0.54332 -0.136275,-0.1968 -0.312282,-0.40504 -0.527525,-0.62649 -0.215337,-0.22153 -0.491665,-0.44831 -0.829292,-0.68431 -0.494364,-0.34555 -0.992983,-0.58879 -1.504596,-0.73035 -0.506794,-0.13804 -1.006771,-0.17613 -1.504362,-0.11227 -0.492624,0.0674 -0.973351,0.23836 -1.44123,0.51615 -0.46435,0.27352 -0.895581,0.65178 -1.28739,1.13906 -0.408757,0.50836 -0.695731,1.02875 -0.854892,1.56658 -0.150773,0.53732 -0.179025,1.07239 -0.0806,1.60437 0.106753,0.53144 0.335689,1.04892 0.688264,1.54648 0.355581,0.4931 0.830399,0.94979 1.421799,1.36055 0.455674,0.31648 0.895182,0.55216 1.313249,0.70834 0.421155,0.15183 0.859284,0.2622 1.312434,0.33034 l 1.22846,-1.93287 c -0.504389,-0.32057 -1.00438,-0.64809 -1.499768,-0.98246 -0.09437,-0.0637 -0.155366,-0.13719 -0.182955,-0.22011 -0.0276,-0.0829 -0.01879,-0.15721 0.02608,-0.22287 l 0.462179,-0.6762 c 1.011251,0.69118 2.042409,1.35325 3.09163,1.98527 l -2.07622,3.44672 z"
         id="path20"
         inkscape:label="G" /></g></g></svg>
